<mxfile host="app.diagrams.net" modified="2022-04-01T09:50:57.743Z" agent="5.0 (Macintosh; Intel Mac OS X 10_15_7) AppleWebKit/537.36 (KHTML, like Gecko) Chrome/99.0.4844.84 Safari/537.36" etag="ae2CwzhDCnCf-B651N1L" version="16.5.1" type="github" pages="4">
  <diagram id="7YOn5VXB_J1mYD4qoXH9" name="Page-1">
    <mxGraphModel dx="1454" dy="1104" grid="1" gridSize="10" guides="1" tooltips="1" connect="1" arrows="1" fold="1" page="1" pageScale="1" pageWidth="827" pageHeight="1169" math="0" shadow="0">
      <root>
        <mxCell id="0" />
        <mxCell id="1" parent="0" />
        <mxCell id="f4O8mgRl8qnpQgCTedLg-1" value="&lt;font style=&quot;font-size: 24px&quot;&gt;AWS&lt;/font&gt;" style="whiteSpace=wrap;html=1;aspect=fixed;" vertex="1" parent="1">
          <mxGeometry x="350" y="240" width="590" height="590" as="geometry" />
        </mxCell>
        <mxCell id="f4O8mgRl8qnpQgCTedLg-3" value="&lt;font style=&quot;font-size: 24px&quot;&gt;Load balancer&lt;/font&gt;" style="rounded=0;whiteSpace=wrap;html=1;" vertex="1" parent="1">
          <mxGeometry x="360" y="720" width="570" height="60" as="geometry" />
        </mxCell>
        <mxCell id="f4O8mgRl8qnpQgCTedLg-4" value="&lt;font style=&quot;font-size: 24px&quot;&gt;Browser&lt;/font&gt;" style="rounded=0;whiteSpace=wrap;html=1;" vertex="1" parent="1">
          <mxGeometry x="530" y="850" width="230" height="190" as="geometry" />
        </mxCell>
        <mxCell id="f4O8mgRl8qnpQgCTedLg-5" value="&lt;font style=&quot;font-size: 24px&quot;&gt;platform-ai&lt;/font&gt;" style="whiteSpace=wrap;html=1;aspect=fixed;" vertex="1" parent="1">
          <mxGeometry x="690" y="430" width="195" height="195" as="geometry" />
        </mxCell>
        <mxCell id="f4O8mgRl8qnpQgCTedLg-6" value="" style="endArrow=classic;html=1;rounded=0;exitX=0.5;exitY=0;exitDx=0;exitDy=0;entryX=0.5;entryY=1;entryDx=0;entryDy=0;" edge="1" parent="1" source="f4O8mgRl8qnpQgCTedLg-4" target="f4O8mgRl8qnpQgCTedLg-3">
          <mxGeometry width="50" height="50" relative="1" as="geometry">
            <mxPoint x="710" y="580" as="sourcePoint" />
            <mxPoint x="760" y="530" as="targetPoint" />
          </mxGeometry>
        </mxCell>
        <mxCell id="f4O8mgRl8qnpQgCTedLg-7" value="" style="endArrow=classic;html=1;rounded=0;exitX=0.75;exitY=0;exitDx=0;exitDy=0;entryX=0.5;entryY=1;entryDx=0;entryDy=0;" edge="1" parent="1" source="f4O8mgRl8qnpQgCTedLg-3" target="f4O8mgRl8qnpQgCTedLg-5">
          <mxGeometry width="50" height="50" relative="1" as="geometry">
            <mxPoint x="710" y="580" as="sourcePoint" />
            <mxPoint x="760" y="530" as="targetPoint" />
          </mxGeometry>
        </mxCell>
        <mxCell id="f4O8mgRl8qnpQgCTedLg-15" value="&lt;font style=&quot;font-size: 24px&quot;&gt;admin.inspera.no/**&lt;/font&gt;" style="edgeLabel;html=1;align=center;verticalAlign=middle;resizable=0;points=[];" vertex="1" connectable="0" parent="f4O8mgRl8qnpQgCTedLg-7">
          <mxGeometry x="0.0244" y="1" relative="1" as="geometry">
            <mxPoint x="1" y="9" as="offset" />
          </mxGeometry>
        </mxCell>
        <mxCell id="f4O8mgRl8qnpQgCTedLg-8" value="&lt;font style=&quot;font-size: 24px&quot;&gt;DB&lt;/font&gt;" style="shape=cylinder3;whiteSpace=wrap;html=1;boundedLbl=1;backgroundOutline=1;size=15;" vertex="1" parent="1">
          <mxGeometry x="700" y="300" width="60" height="80" as="geometry" />
        </mxCell>
        <mxCell id="f4O8mgRl8qnpQgCTedLg-9" value="" style="endArrow=classic;html=1;rounded=0;exitX=0.25;exitY=0;exitDx=0;exitDy=0;entryX=0.5;entryY=1;entryDx=0;entryDy=0;entryPerimeter=0;" edge="1" parent="1" source="f4O8mgRl8qnpQgCTedLg-5" target="f4O8mgRl8qnpQgCTedLg-8">
          <mxGeometry width="50" height="50" relative="1" as="geometry">
            <mxPoint x="710" y="700" as="sourcePoint" />
            <mxPoint x="760" y="650" as="targetPoint" />
          </mxGeometry>
        </mxCell>
        <mxCell id="f4O8mgRl8qnpQgCTedLg-10" value="&lt;font style=&quot;font-size: 24px&quot;&gt;S3&lt;/font&gt;" style="whiteSpace=wrap;html=1;aspect=fixed;" vertex="1" parent="1">
          <mxGeometry x="800" y="300" width="80" height="80" as="geometry" />
        </mxCell>
        <mxCell id="f4O8mgRl8qnpQgCTedLg-11" value="" style="endArrow=classic;html=1;rounded=0;entryX=0.5;entryY=1;entryDx=0;entryDy=0;exitX=0.75;exitY=0;exitDx=0;exitDy=0;" edge="1" parent="1" source="f4O8mgRl8qnpQgCTedLg-5" target="f4O8mgRl8qnpQgCTedLg-10">
          <mxGeometry width="50" height="50" relative="1" as="geometry">
            <mxPoint x="710" y="700" as="sourcePoint" />
            <mxPoint x="760" y="650" as="targetPoint" />
          </mxGeometry>
        </mxCell>
        <mxCell id="f4O8mgRl8qnpQgCTedLg-12" value="&lt;font style=&quot;font-size: 24px&quot;&gt;assessment-path-frontend&lt;/font&gt;" style="whiteSpace=wrap;html=1;aspect=fixed;" vertex="1" parent="1">
          <mxGeometry x="430" y="475" width="150" height="150" as="geometry" />
        </mxCell>
        <mxCell id="f4O8mgRl8qnpQgCTedLg-14" value="&lt;font style=&quot;font-size: 24px&quot;&gt;admin.inspera.no/delivery/**&lt;/font&gt;" style="endArrow=classic;html=1;rounded=0;exitX=0.25;exitY=0;exitDx=0;exitDy=0;entryX=0.5;entryY=1;entryDx=0;entryDy=0;" edge="1" parent="1" source="f4O8mgRl8qnpQgCTedLg-3" target="f4O8mgRl8qnpQgCTedLg-12">
          <mxGeometry x="-0.2288" y="-7" width="50" height="50" relative="1" as="geometry">
            <mxPoint x="710" y="660" as="sourcePoint" />
            <mxPoint x="760" y="610" as="targetPoint" />
            <mxPoint as="offset" />
          </mxGeometry>
        </mxCell>
      </root>
    </mxGraphModel>
  </diagram>
  <diagram name="Copy of Page-1" id="2eSkwnyO9Kvnotqnnf2I">
    <mxGraphModel dx="1454" dy="1104" grid="1" gridSize="10" guides="1" tooltips="1" connect="1" arrows="1" fold="1" page="1" pageScale="1" pageWidth="827" pageHeight="1169" math="0" shadow="0">
      <root>
        <mxCell id="t1rSCm3pHOs1pL4Rashm-0" />
        <mxCell id="t1rSCm3pHOs1pL4Rashm-1" parent="t1rSCm3pHOs1pL4Rashm-0" />
        <mxCell id="t1rSCm3pHOs1pL4Rashm-2" value="&lt;font style=&quot;font-size: 24px&quot;&gt;AWS&lt;/font&gt;" style="whiteSpace=wrap;html=1;aspect=fixed;" vertex="1" parent="t1rSCm3pHOs1pL4Rashm-1">
          <mxGeometry x="350" y="240" width="590" height="590" as="geometry" />
        </mxCell>
        <mxCell id="t1rSCm3pHOs1pL4Rashm-3" value="&lt;font style=&quot;font-size: 24px&quot;&gt;Load balancer&lt;/font&gt;" style="rounded=0;whiteSpace=wrap;html=1;" vertex="1" parent="t1rSCm3pHOs1pL4Rashm-1">
          <mxGeometry x="360" y="720" width="570" height="60" as="geometry" />
        </mxCell>
        <mxCell id="t1rSCm3pHOs1pL4Rashm-4" value="&lt;font style=&quot;font-size: 24px&quot;&gt;Browser&lt;/font&gt;" style="rounded=0;whiteSpace=wrap;html=1;" vertex="1" parent="t1rSCm3pHOs1pL4Rashm-1">
          <mxGeometry x="530" y="850" width="230" height="190" as="geometry" />
        </mxCell>
        <mxCell id="t1rSCm3pHOs1pL4Rashm-5" value="&lt;font style=&quot;font-size: 24px&quot;&gt;platform-ai&lt;/font&gt;" style="whiteSpace=wrap;html=1;aspect=fixed;" vertex="1" parent="t1rSCm3pHOs1pL4Rashm-1">
          <mxGeometry x="690" y="430" width="195" height="195" as="geometry" />
        </mxCell>
        <mxCell id="t1rSCm3pHOs1pL4Rashm-6" value="" style="endArrow=classic;html=1;rounded=0;exitX=0.5;exitY=0;exitDx=0;exitDy=0;entryX=0.5;entryY=1;entryDx=0;entryDy=0;" edge="1" parent="t1rSCm3pHOs1pL4Rashm-1" source="t1rSCm3pHOs1pL4Rashm-4" target="t1rSCm3pHOs1pL4Rashm-3">
          <mxGeometry width="50" height="50" relative="1" as="geometry">
            <mxPoint x="710" y="580" as="sourcePoint" />
            <mxPoint x="760" y="530" as="targetPoint" />
          </mxGeometry>
        </mxCell>
        <mxCell id="t1rSCm3pHOs1pL4Rashm-7" value="" style="endArrow=classic;html=1;rounded=0;exitX=0.75;exitY=0;exitDx=0;exitDy=0;entryX=0.5;entryY=1;entryDx=0;entryDy=0;" edge="1" parent="t1rSCm3pHOs1pL4Rashm-1" source="t1rSCm3pHOs1pL4Rashm-3" target="t1rSCm3pHOs1pL4Rashm-5">
          <mxGeometry width="50" height="50" relative="1" as="geometry">
            <mxPoint x="710" y="580" as="sourcePoint" />
            <mxPoint x="760" y="530" as="targetPoint" />
          </mxGeometry>
        </mxCell>
        <mxCell id="t1rSCm3pHOs1pL4Rashm-8" value="&lt;font style=&quot;font-size: 24px&quot;&gt;admin.inspera.no/**&lt;/font&gt;" style="edgeLabel;html=1;align=center;verticalAlign=middle;resizable=0;points=[];" vertex="1" connectable="0" parent="t1rSCm3pHOs1pL4Rashm-7">
          <mxGeometry x="0.0244" y="1" relative="1" as="geometry">
            <mxPoint x="1" y="9" as="offset" />
          </mxGeometry>
        </mxCell>
        <mxCell id="t1rSCm3pHOs1pL4Rashm-9" value="&lt;font style=&quot;font-size: 24px&quot;&gt;DB&lt;/font&gt;" style="shape=cylinder3;whiteSpace=wrap;html=1;boundedLbl=1;backgroundOutline=1;size=15;" vertex="1" parent="t1rSCm3pHOs1pL4Rashm-1">
          <mxGeometry x="680" y="300" width="60" height="80" as="geometry" />
        </mxCell>
        <mxCell id="t1rSCm3pHOs1pL4Rashm-10" value="" style="endArrow=classic;html=1;rounded=0;exitX=0.25;exitY=0;exitDx=0;exitDy=0;entryX=0.5;entryY=1;entryDx=0;entryDy=0;entryPerimeter=0;" edge="1" parent="t1rSCm3pHOs1pL4Rashm-1" source="t1rSCm3pHOs1pL4Rashm-5" target="t1rSCm3pHOs1pL4Rashm-9">
          <mxGeometry width="50" height="50" relative="1" as="geometry">
            <mxPoint x="710" y="700" as="sourcePoint" />
            <mxPoint x="760" y="650" as="targetPoint" />
          </mxGeometry>
        </mxCell>
        <mxCell id="t1rSCm3pHOs1pL4Rashm-11" value="&lt;font style=&quot;font-size: 24px&quot;&gt;S3&lt;/font&gt;" style="whiteSpace=wrap;html=1;aspect=fixed;" vertex="1" parent="t1rSCm3pHOs1pL4Rashm-1">
          <mxGeometry x="790" y="300" width="80" height="80" as="geometry" />
        </mxCell>
        <mxCell id="t1rSCm3pHOs1pL4Rashm-12" value="" style="endArrow=classic;html=1;rounded=0;entryX=0.5;entryY=1;entryDx=0;entryDy=0;exitX=0.75;exitY=0;exitDx=0;exitDy=0;" edge="1" parent="t1rSCm3pHOs1pL4Rashm-1" source="t1rSCm3pHOs1pL4Rashm-5" target="t1rSCm3pHOs1pL4Rashm-11">
          <mxGeometry width="50" height="50" relative="1" as="geometry">
            <mxPoint x="710" y="700" as="sourcePoint" />
            <mxPoint x="760" y="650" as="targetPoint" />
          </mxGeometry>
        </mxCell>
        <mxCell id="t1rSCm3pHOs1pL4Rashm-13" value="&lt;font style=&quot;font-size: 24px&quot;&gt;assessment-path-frontend&lt;/font&gt;" style="whiteSpace=wrap;html=1;aspect=fixed;" vertex="1" parent="t1rSCm3pHOs1pL4Rashm-1">
          <mxGeometry x="430" y="470" width="150" height="150" as="geometry" />
        </mxCell>
        <mxCell id="t1rSCm3pHOs1pL4Rashm-14" value="&lt;font style=&quot;font-size: 24px&quot;&gt;admin.inspera.no/delivery/**&lt;/font&gt;" style="endArrow=classic;html=1;rounded=0;exitX=0.25;exitY=0;exitDx=0;exitDy=0;entryX=0.5;entryY=1;entryDx=0;entryDy=0;" edge="1" parent="t1rSCm3pHOs1pL4Rashm-1" source="t1rSCm3pHOs1pL4Rashm-3" target="t1rSCm3pHOs1pL4Rashm-13">
          <mxGeometry x="-0.2288" y="-7" width="50" height="50" relative="1" as="geometry">
            <mxPoint x="710" y="660" as="sourcePoint" />
            <mxPoint x="760" y="610" as="targetPoint" />
            <mxPoint as="offset" />
          </mxGeometry>
        </mxCell>
        <mxCell id="t1rSCm3pHOs1pL4Rashm-15" value="" style="endArrow=classic;html=1;rounded=0;fontSize=24;exitX=1;exitY=0.75;exitDx=0;exitDy=0;" edge="1" parent="t1rSCm3pHOs1pL4Rashm-1" source="t1rSCm3pHOs1pL4Rashm-13">
          <mxGeometry width="50" height="50" relative="1" as="geometry">
            <mxPoint x="710" y="620" as="sourcePoint" />
            <mxPoint x="690" y="580" as="targetPoint" />
          </mxGeometry>
        </mxCell>
      </root>
    </mxGraphModel>
  </diagram>
  <diagram name="Copy of Copy of Page-1" id="-jdm3Lmvf6PQDs9dpFLn">
    <mxGraphModel dx="1454" dy="1104" grid="1" gridSize="10" guides="1" tooltips="1" connect="1" arrows="1" fold="1" page="1" pageScale="1" pageWidth="827" pageHeight="1169" math="0" shadow="0">
      <root>
        <mxCell id="sV1PuqdgwW6CBrt_0ABH-0" />
        <mxCell id="sV1PuqdgwW6CBrt_0ABH-1" parent="sV1PuqdgwW6CBrt_0ABH-0" />
        <mxCell id="sV1PuqdgwW6CBrt_0ABH-2" value="&lt;font style=&quot;font-size: 24px&quot;&gt;AWS&lt;/font&gt;" style="whiteSpace=wrap;html=1;aspect=fixed;" vertex="1" parent="sV1PuqdgwW6CBrt_0ABH-1">
          <mxGeometry x="350" y="240" width="590" height="590" as="geometry" />
        </mxCell>
        <mxCell id="sV1PuqdgwW6CBrt_0ABH-3" value="&lt;font style=&quot;font-size: 24px&quot;&gt;Load balancer&lt;/font&gt;" style="rounded=0;whiteSpace=wrap;html=1;" vertex="1" parent="sV1PuqdgwW6CBrt_0ABH-1">
          <mxGeometry x="360" y="720" width="570" height="60" as="geometry" />
        </mxCell>
        <mxCell id="sV1PuqdgwW6CBrt_0ABH-4" value="&lt;font style=&quot;font-size: 24px&quot;&gt;Browser&lt;/font&gt;" style="rounded=0;whiteSpace=wrap;html=1;" vertex="1" parent="sV1PuqdgwW6CBrt_0ABH-1">
          <mxGeometry x="530" y="850" width="230" height="190" as="geometry" />
        </mxCell>
        <mxCell id="sV1PuqdgwW6CBrt_0ABH-5" value="&lt;font style=&quot;font-size: 24px&quot;&gt;platform-ai&lt;/font&gt;" style="whiteSpace=wrap;html=1;aspect=fixed;" vertex="1" parent="sV1PuqdgwW6CBrt_0ABH-1">
          <mxGeometry x="690" y="430" width="195" height="195" as="geometry" />
        </mxCell>
        <mxCell id="sV1PuqdgwW6CBrt_0ABH-6" value="" style="endArrow=classic;html=1;rounded=0;exitX=0.5;exitY=0;exitDx=0;exitDy=0;entryX=0.5;entryY=1;entryDx=0;entryDy=0;" edge="1" parent="sV1PuqdgwW6CBrt_0ABH-1" source="sV1PuqdgwW6CBrt_0ABH-4" target="sV1PuqdgwW6CBrt_0ABH-3">
          <mxGeometry width="50" height="50" relative="1" as="geometry">
            <mxPoint x="710" y="580" as="sourcePoint" />
            <mxPoint x="760" y="530" as="targetPoint" />
          </mxGeometry>
        </mxCell>
        <mxCell id="sV1PuqdgwW6CBrt_0ABH-7" value="" style="endArrow=classic;html=1;rounded=0;exitX=0.75;exitY=0;exitDx=0;exitDy=0;entryX=0.5;entryY=1;entryDx=0;entryDy=0;" edge="1" parent="sV1PuqdgwW6CBrt_0ABH-1" source="sV1PuqdgwW6CBrt_0ABH-3" target="sV1PuqdgwW6CBrt_0ABH-5">
          <mxGeometry width="50" height="50" relative="1" as="geometry">
            <mxPoint x="710" y="580" as="sourcePoint" />
            <mxPoint x="760" y="530" as="targetPoint" />
          </mxGeometry>
        </mxCell>
        <mxCell id="sV1PuqdgwW6CBrt_0ABH-8" value="&lt;font style=&quot;font-size: 24px&quot;&gt;admin.inspera.no/**&lt;/font&gt;" style="edgeLabel;html=1;align=center;verticalAlign=middle;resizable=0;points=[];" vertex="1" connectable="0" parent="sV1PuqdgwW6CBrt_0ABH-7">
          <mxGeometry x="0.0244" y="1" relative="1" as="geometry">
            <mxPoint x="1" y="9" as="offset" />
          </mxGeometry>
        </mxCell>
        <mxCell id="sV1PuqdgwW6CBrt_0ABH-9" value="&lt;font style=&quot;font-size: 24px&quot;&gt;DB&lt;/font&gt;" style="shape=cylinder3;whiteSpace=wrap;html=1;boundedLbl=1;backgroundOutline=1;size=15;" vertex="1" parent="sV1PuqdgwW6CBrt_0ABH-1">
          <mxGeometry x="680" y="300" width="60" height="80" as="geometry" />
        </mxCell>
        <mxCell id="sV1PuqdgwW6CBrt_0ABH-10" value="" style="endArrow=classic;html=1;rounded=0;exitX=0.25;exitY=0;exitDx=0;exitDy=0;entryX=0.5;entryY=1;entryDx=0;entryDy=0;entryPerimeter=0;" edge="1" parent="sV1PuqdgwW6CBrt_0ABH-1" source="sV1PuqdgwW6CBrt_0ABH-5" target="sV1PuqdgwW6CBrt_0ABH-9">
          <mxGeometry width="50" height="50" relative="1" as="geometry">
            <mxPoint x="710" y="700" as="sourcePoint" />
            <mxPoint x="760" y="650" as="targetPoint" />
          </mxGeometry>
        </mxCell>
        <mxCell id="sV1PuqdgwW6CBrt_0ABH-11" value="&lt;font style=&quot;font-size: 24px&quot;&gt;S3&lt;/font&gt;" style="whiteSpace=wrap;html=1;aspect=fixed;" vertex="1" parent="sV1PuqdgwW6CBrt_0ABH-1">
          <mxGeometry x="790" y="300" width="80" height="80" as="geometry" />
        </mxCell>
        <mxCell id="sV1PuqdgwW6CBrt_0ABH-12" value="" style="endArrow=classic;html=1;rounded=0;entryX=0.5;entryY=1;entryDx=0;entryDy=0;exitX=0.75;exitY=0;exitDx=0;exitDy=0;" edge="1" parent="sV1PuqdgwW6CBrt_0ABH-1" source="sV1PuqdgwW6CBrt_0ABH-5" target="sV1PuqdgwW6CBrt_0ABH-11">
          <mxGeometry width="50" height="50" relative="1" as="geometry">
            <mxPoint x="710" y="700" as="sourcePoint" />
            <mxPoint x="760" y="650" as="targetPoint" />
          </mxGeometry>
        </mxCell>
        <mxCell id="sV1PuqdgwW6CBrt_0ABH-13" value="&lt;font style=&quot;font-size: 24px&quot;&gt;assessment-path-frontend&lt;/font&gt;" style="whiteSpace=wrap;html=1;aspect=fixed;" vertex="1" parent="sV1PuqdgwW6CBrt_0ABH-1">
          <mxGeometry x="430" y="470" width="150" height="150" as="geometry" />
        </mxCell>
        <mxCell id="sV1PuqdgwW6CBrt_0ABH-14" value="&lt;font style=&quot;font-size: 24px&quot;&gt;admin.inspera.no/delivery/**&lt;/font&gt;" style="endArrow=classic;html=1;rounded=0;exitX=0.25;exitY=0;exitDx=0;exitDy=0;entryX=0.5;entryY=1;entryDx=0;entryDy=0;" edge="1" parent="sV1PuqdgwW6CBrt_0ABH-1" source="sV1PuqdgwW6CBrt_0ABH-3" target="sV1PuqdgwW6CBrt_0ABH-13">
          <mxGeometry x="-0.2288" y="-7" width="50" height="50" relative="1" as="geometry">
            <mxPoint x="710" y="660" as="sourcePoint" />
            <mxPoint x="760" y="610" as="targetPoint" />
            <mxPoint as="offset" />
          </mxGeometry>
        </mxCell>
        <mxCell id="sV1PuqdgwW6CBrt_0ABH-16" value="MP-service" style="whiteSpace=wrap;html=1;aspect=fixed;fontSize=24;" vertex="1" parent="sV1PuqdgwW6CBrt_0ABH-1">
          <mxGeometry x="430" y="280" width="150" height="150" as="geometry" />
        </mxCell>
        <mxCell id="sV1PuqdgwW6CBrt_0ABH-17" value="" style="endArrow=classic;html=1;rounded=0;fontSize=24;exitX=0.5;exitY=0;exitDx=0;exitDy=0;entryX=0.5;entryY=1;entryDx=0;entryDy=0;" edge="1" parent="sV1PuqdgwW6CBrt_0ABH-1" source="sV1PuqdgwW6CBrt_0ABH-13" target="sV1PuqdgwW6CBrt_0ABH-16">
          <mxGeometry width="50" height="50" relative="1" as="geometry">
            <mxPoint x="710" y="590" as="sourcePoint" />
            <mxPoint x="760" y="540" as="targetPoint" />
          </mxGeometry>
        </mxCell>
        <mxCell id="sV1PuqdgwW6CBrt_0ABH-18" value="" style="endArrow=classic;html=1;rounded=0;fontSize=24;exitX=1;exitY=0.5;exitDx=0;exitDy=0;entryX=0;entryY=0.5;entryDx=0;entryDy=0;entryPerimeter=0;" edge="1" parent="sV1PuqdgwW6CBrt_0ABH-1" source="sV1PuqdgwW6CBrt_0ABH-16" target="sV1PuqdgwW6CBrt_0ABH-9">
          <mxGeometry width="50" height="50" relative="1" as="geometry">
            <mxPoint x="710" y="590" as="sourcePoint" />
            <mxPoint x="760" y="540" as="targetPoint" />
          </mxGeometry>
        </mxCell>
        <mxCell id="sV1PuqdgwW6CBrt_0ABH-19" value="" style="endArrow=classic;html=1;rounded=0;fontSize=24;exitX=0;exitY=0.25;exitDx=0;exitDy=0;entryX=1;entryY=0.75;entryDx=0;entryDy=0;" edge="1" parent="sV1PuqdgwW6CBrt_0ABH-1" source="sV1PuqdgwW6CBrt_0ABH-5" target="sV1PuqdgwW6CBrt_0ABH-16">
          <mxGeometry width="50" height="50" relative="1" as="geometry">
            <mxPoint x="710" y="590" as="sourcePoint" />
            <mxPoint x="760" y="540" as="targetPoint" />
          </mxGeometry>
        </mxCell>
      </root>
    </mxGraphModel>
  </diagram>
  <diagram id="bWbM2FiEXfYHJPJWasUU" name="Page-4">
    <mxGraphModel dx="1454" dy="1104" grid="1" gridSize="10" guides="1" tooltips="1" connect="1" arrows="1" fold="1" page="1" pageScale="1" pageWidth="827" pageHeight="1169" math="0" shadow="0">
      <root>
        <mxCell id="JE0D8g6gyrJgNpmaxEiu-0" />
        <mxCell id="JE0D8g6gyrJgNpmaxEiu-1" parent="JE0D8g6gyrJgNpmaxEiu-0" />
        <mxCell id="JE0D8g6gyrJgNpmaxEiu-2" value="marketplace-properties-service" style="whiteSpace=wrap;html=1;aspect=fixed;fontSize=24;" vertex="1" parent="JE0D8g6gyrJgNpmaxEiu-1">
          <mxGeometry x="140" y="210" width="580" height="580" as="geometry" />
        </mxCell>
        <mxCell id="JE0D8g6gyrJgNpmaxEiu-3" value="GET /api/v1/marketplace-properties/{id}" style="text;html=1;strokeColor=none;fillColor=none;align=center;verticalAlign=middle;whiteSpace=wrap;rounded=0;fontSize=24;" vertex="1" parent="JE0D8g6gyrJgNpmaxEiu-1">
          <mxGeometry x="169" y="630" width="451" height="30" as="geometry" />
        </mxCell>
        <mxCell id="JE0D8g6gyrJgNpmaxEiu-4" value="POST /api/v1/marketplace-properties" style="text;html=1;strokeColor=none;fillColor=none;align=center;verticalAlign=middle;whiteSpace=wrap;rounded=0;fontSize=24;" vertex="1" parent="JE0D8g6gyrJgNpmaxEiu-1">
          <mxGeometry x="174" y="660" width="410" height="30" as="geometry" />
        </mxCell>
        <mxCell id="JE0D8g6gyrJgNpmaxEiu-5" value="DELETE /api/v1/marketplace-properties/{id}" style="text;html=1;strokeColor=none;fillColor=none;align=center;verticalAlign=middle;whiteSpace=wrap;rounded=0;fontSize=24;" vertex="1" parent="JE0D8g6gyrJgNpmaxEiu-1">
          <mxGeometry x="169" y="690" width="490" height="30" as="geometry" />
        </mxCell>
        <mxCell id="JE0D8g6gyrJgNpmaxEiu-6" value="GET /api/v1/marketplace-properties" style="text;html=1;strokeColor=none;fillColor=none;align=center;verticalAlign=middle;whiteSpace=wrap;rounded=0;fontSize=24;" vertex="1" parent="JE0D8g6gyrJgNpmaxEiu-1">
          <mxGeometry x="164" y="600" width="420" height="30" as="geometry" />
        </mxCell>
      </root>
    </mxGraphModel>
  </diagram>
</mxfile>
